# xmcd CD database file
#
# Track frame offsets:
#	225
#	24510
#	41835
#	64516
#	92725
#	114259
#	140910
#	169710
#	196076
#	228360
#	244075
#	266747
#	297439
#
# Disc length: 4419 seconds
#
# Revision: 0
# Processed by: cddbd v1.5.1PL0 Copyright (c) Steve Scherf et al.
# Submitted via: CDex 1.51
#
DISCID=b811400d
DTITLE=Tony Pacini Trio - I'll Close My Eyes
DYEAR=2000
DGENRE=Jazz
TTITLE0=Time To Swing
TTITLE1=Secret Love
TTITLE2=Pastel For Two
TTITLE3=I'll Remember April
TTITLE4=This Could Be The Start Of Something Big
TTITLE5=Line For Lyons
TTITLE6=Song For Marci
TTITLE7=B.T.
TTITLE8=I'll Close My Eyes
TTITLE9=Phineas Frog's Hair
TTITLE10=Chelsea Bridge
TTITLE11=Blue Medley (Speedball/Splanky)
TTITLE12=You Must Believe In Spring
EXTD=YEAR: 2000
EXTT0=
EXTT1=
EXTT2=
EXTT3=
EXTT4=
EXTT5=
EXTT6=
EXTT7=
EXTT8=
EXTT9=
EXTT10=
EXTT11=
EXTT12=
PLAYORDER=
